<svg xmlns="http://www.w3.org/2000/svg" xmlns:xlink="http://www.w3.org/1999/xlink" viewBox="-1300 -1300 3600 3600" version="1.1" style="background: rgba(160,160,160,.1);">
<path id="拼合图形" fill-rule="evenodd" style="fill:#D3D4D5" transform="translate(0 0)  rotate(0 380.5 380.5)" opacity="1" d="M558.07 761L0 761L0 202.93C0 90.85 90.85 0 202.93 0L761 0L761 558.07C761 670.15 670.15 761 558.07 761ZM62.66 143.7C66.5 134.65 71.2 126.03 76.69 117.87C82.19 109.75 88.36 102.23 95.29 95.29C102.23 88.36 109.75 82.19 117.87 76.69C126.03 71.2 134.65 66.5 143.7 62.66C152.92 58.77 162.43 55.85 172.2 53.82C182.3 51.75 192.53 50.73 202.93 50.73L710.27 50.73L710.27 558.07C710.27 568.47 709.25 578.7 707.18 588.8C705.15 598.57 702.23 608.08 698.34 617.3C694.5 626.35 689.8 634.97 684.31 643.13C678.81 651.25 672.6 658.77 665.66 665.66C658.77 672.6 651.25 678.81 643.13 684.31C634.97 689.8 626.35 694.5 617.3 698.34C608.08 702.23 598.57 705.15 588.8 707.18C578.7 709.25 568.47 710.27 558.07 710.27L50.73 710.27L50.73 202.93C50.73 192.53 51.75 182.3 53.82 172.2C55.85 162.43 58.77 152.92 62.66 143.7ZM306.23 209.74L342.75 174.99L312.02 140.91L119.91 140.91L180.75 209.74L306.23 209.74ZM458.13 174.99L488.23 209.74L625.89 209.74L698.27 140.91L493.98 140.91L458.13 174.99ZM166.63 222.21L105.83 154.02L91.07 331.67L113.48 357.92L158.97 314.63L166.63 222.21ZM374.76 331.67L347.24 357.92L309.44 314.63L317.13 222.21L353.62 188.09L383.72 222.21L374.76 331.67ZM421.01 357.92L466.46 314.63L474.15 222.21L444.05 188.09L407.57 222.21L398.6 331.67L421.01 357.92ZM155.76 404.47L297.9 404.47L334.43 370.35L303.69 336.28L161.51 336.28L125.66 370.35L155.76 404.47ZM111.58 383.46L149.38 426.08L140.41 531.64L68.03 599.84L84.06 409.04L111.58 383.46ZM382.58 518.54L391.54 409.04L419.07 383.46L456.86 426.08L449.17 518.54L412.68 552.61L382.58 518.54ZM598.37 531.64L659.2 599.84L454.96 599.84L424.86 565.72L460.71 531.64L598.37 531.64Z"/>
</svg>