<?xml version="1.0" standalone="no"?><!DOCTYPE svg PUBLIC "-//W3C//DTD SVG 1.1//EN" "http://www.w3.org/Graphics/SVG/1.1/DTD/svg11.dtd"><svg t="1709820723037" class="icon" viewBox="0 0 1024 1024" version="1.1" xmlns="http://www.w3.org/2000/svg" p-id="917" xmlns:xlink="http://www.w3.org/1999/xlink" width="200" height="200"><path d="M511 65.951c126.473 0 229 102.527 229 229 0 85.98-47.384 160.893-117.464 200.05L725 495c102.173 0 185 82.827 185 185v95c0 102.173-82.827 185-185 185H297c-102.173 0-185-82.827-185-185v-95c0-102.173 82.827-185 185-185h102.464C329.384 455.844 282 380.931 282 294.951c0-126.473 102.527-229 229-229zM725 585H297c-52.467 0-95 42.533-95 95v95c0 52.467 42.533 95 95 95h428c52.467 0 95-42.533 95-95v-95c0-52.467-42.533-95-95-95zM511 155.951c-76.768 0-139 62.233-139 139 0 76.768 62.232 139 139 139s139-62.232 139-139c0-76.767-62.232-139-139-139z" fill="#2E2B26" p-id="918"></path><path d="M575.56 738c0 30.684-24.875 55.56-55.56 55.56-30.685 0-55.56-24.876-55.56-55.56v-67.94c0-30.686 24.875-55.56 55.56-55.56 30.685 0 55.56 24.874 55.56 55.56V738z" fill="#FFCC00" p-id="919"></path></svg>